<?xml version="1.0" standalone="no"?>
<!DOCTYPE svg PUBLIC "-//W3C//DTD SVG 20010904//EN"
 "http://www.w3.org/TR/2001/REC-SVG-20010904/DTD/svg10.dtd">
<svg version="1.0" xmlns="http://www.w3.org/2000/svg"
 width="2000.000000pt" height="484.000000pt" viewBox="0 0 2000.000000 484.000000"
 preserveAspectRatio="xMidYMid meet">

<g transform="translate(0.000000,484.000000) scale(0.100000,-0.100000)"
fill="#000000" stroke="none">
<path d="M2248 1839 c-340 -44 -494 -242 -539 -694 -22 -225 5 -798 45 -928
34 -112 92 -161 188 -161 65 1 99 19 128 67 18 30 20 53 21 307 1 151 4 289 8
305 16 75 94 20 308 -218 270 -300 392 -404 498 -428 61 -14 120 -1 163 36 42
35 45 67 11 118 -40 60 -324 362 -463 492 -65 60 -122 118 -128 129 -15 28 9
42 95 56 378 63 560 239 518 499 -37 228 -253 383 -584 420 -109 12 -172 12
-269 0z m302 -225 c165 -49 240 -132 240 -265 0 -57 -40 -139 -87 -178 -92
-76 -248 -129 -408 -138 -118 -6 -177 6 -202 43 -33 51 -26 262 13 393 24 81
86 140 169 162 45 12 213 2 275 -17z"/>
<path d="M4070 1826 c-234 -42 -399 -118 -537 -249 -107 -102 -175 -218 -219
-377 -27 -95 -27 -431 0 -545 75 -325 273 -533 581 -615 220 -57 590 -39 807
40 247 90 374 257 394 515 19 245 -104 417 -344 479 -106 28 -263 39 -382 27
-164 -16 -230 -52 -230 -126 0 -76 65 -108 253 -125 164 -16 245 -50 304 -127
39 -51 45 -157 13 -231 -26 -60 -92 -125 -154 -153 -175 -77 -468 -68 -629 18
-116 63 -207 193 -244 350 -25 107 -25 341 0 433 48 177 153 313 297 383 171
85 363 88 601 11 152 -49 228 -43 257 21 47 102 -57 196 -283 256 -102 27
-370 35 -485 15z"/>
<path d="M16102 1809 c-25 -13 -55 -39 -73 -66 -66 -95 -81 -152 -185 -688
-67 -344 -102 -465 -149 -512 -83 -83 -163 2 -194 207 -17 112 -41 435 -50
677 -8 215 -10 235 -32 279 -34 68 -65 87 -141 88 -83 1 -124 -22 -158 -89
-24 -48 -25 -59 -28 -260 -7 -377 32 -757 100 -990 83 -287 241 -404 458 -339
107 32 174 96 240 229 53 109 80 209 150 555 64 317 89 411 116 441 35 39 72
14 95 -62 5 -19 34 -168 64 -332 67 -361 95 -491 128 -578 64 -171 163 -249
313 -249 197 0 363 199 449 539 91 362 135 920 79 1025 -29 56 -63 78 -127 84
-40 3 -66 -1 -101 -16 -72 -32 -90 -83 -111 -297 -50 -529 -111 -830 -181
-896 -31 -29 -77 -29 -109 1 -33 31 -48 88 -91 325 -101 575 -133 715 -184
814 -26 52 -67 99 -101 116 -42 22 -126 19 -177 -6z"/>
<path d="M5377 1775 c-84 -29 -117 -86 -117 -199 0 -91 19 -185 60 -296 65
-179 155 -291 330 -409 101 -68 146 -105 161 -133 17 -32 28 -114 39 -304 12
-206 26 -278 64 -313 49 -46 153 -47 202 0 37 34 52 99 69 294 17 194 25 234
54 281 10 17 75 70 144 118 196 136 312 268 398 451 74 159 98 309 60 390 -22
48 -44 69 -95 90 -55 23 -98 13 -134 -31 -30 -36 -43 -61 -125 -234 -93 -194
-229 -360 -341 -415 -162 -79 -315 10 -442 257 -30 60 -73 164 -95 230 -47
147 -77 200 -123 222 -41 19 -59 19 -109 1z"/>
<path d="M10350 1768 c-99 -35 -157 -73 -246 -162 -122 -123 -193 -242 -309
-516 -76 -180 -189 -521 -214 -647 -35 -171 -24 -285 30 -325 63 -47 178 -42
232 10 40 37 57 75 112 242 63 192 87 237 131 256 63 26 360 40 569 26 100 -7
198 -17 216 -23 73 -25 90 -55 159 -290 54 -181 76 -225 134 -260 43 -26 143
-26 195 0 51 27 66 66 64 166 -4 235 -165 812 -300 1078 -70 139 -199 294
-308 372 -97 70 -152 87 -285 92 -100 3 -123 1 -180 -19z m291 -258 c115 -83
238 -333 255 -521 6 -55 3 -68 -14 -89 l-20 -25 -304 -3 c-340 -4 -400 0 -430
30 -29 29 -20 102 31 229 74 184 183 338 271 384 71 37 154 35 211 -5z"/>
<path d="M11538 1780 c-49 -15 -86 -43 -109 -84 -56 -100 0 -383 113 -574 48
-81 148 -178 269 -260 59 -39 118 -85 132 -101 32 -38 44 -110 57 -342 11
-192 26 -263 64 -298 54 -51 161 -46 208 10 35 41 45 88 63 294 9 93 20 186
25 206 17 63 52 101 173 184 225 155 361 325 435 540 68 201 47 336 -61 386
-95 43 -140 11 -217 -149 -115 -242 -173 -334 -273 -434 -158 -156 -305 -162
-443 -17 -86 92 -152 219 -224 437 -43 128 -71 175 -117 197 -34 16 -54 18
-95 5z"/>
<path d="M13839 1772 c-240 -80 -416 -304 -594 -757 -163 -416 -233 -722 -193
-840 23 -69 103 -103 198 -85 35 6 54 18 86 53 36 40 48 67 94 209 67 208 90
255 136 274 63 26 360 40 569 26 100 -7 198 -17 216 -23 73 -25 90 -56 160
-291 70 -236 104 -278 227 -278 131 0 181 61 168 202 -28 300 -171 802 -303
1061 -99 196 -274 377 -423 438 -78 31 -261 37 -341 11z m282 -262 c116 -83
238 -331 255 -521 6 -55 3 -68 -14 -89 l-20 -25 -304 -3 c-166 -2 -327 -1
-356 3 -97 12 -112 56 -67 192 51 150 141 310 221 390 91 91 202 111 285 53z"/>
<path d="M505 1769 c-247 -36 -381 -148 -429 -359 -35 -154 -51 -953 -21
-1093 29 -138 89 -208 214 -249 57 -18 96 -22 281 -25 329 -7 556 30 746 122
108 52 184 127 236 232 30 61 33 76 33 158 0 77 -4 98 -27 147 -53 113 -164
186 -361 236 -59 15 -106 31 -104 35 1 5 35 21 74 36 95 37 134 63 187 122 60
67 79 126 74 237 -2 66 -9 99 -27 135 -65 132 -219 223 -445 262 -96 16 -330
19 -431 4z m356 -193 c134 -29 250 -112 265 -191 3 -20 4 -59 1 -87 -19 -159
-181 -230 -563 -245 -156 -6 -162 -5 -182 15 -20 20 -22 33 -22 120 0 98 21
246 39 280 27 50 102 94 196 115 45 10 204 6 266 -7z m-188 -746 c300 -16 468
-59 541 -140 42 -46 51 -86 36 -150 -40 -168 -300 -270 -657 -258 -138 4 -172
18 -203 83 -41 84 -36 353 8 427 13 23 44 41 82 47 3 0 90 -4 193 -9z"/>
<path d="M8315 1770 c-315 -49 -417 -195 -416 -596 0 -171 11 -337 37 -574 31
-285 58 -382 127 -457 92 -100 234 -72 256 51 5 30 5 135 -1 266 -9 181 -9
221 3 246 l14 29 250 6 c258 6 335 16 470 61 250 83 373 261 338 488 -37 238
-245 403 -588 465 -106 19 -404 28 -490 15z m335 -221 c157 -19 257 -59 337
-132 58 -53 82 -106 83 -176 1 -184 -190 -284 -565 -298 -159 -5 -160 -5 -182
18 -32 36 -51 117 -59 252 -13 238 32 315 200 336 88 12 93 12 186 0z"/>
<path d="M17673 1740 c-18 -10 -39 -33 -48 -49 -49 -96 -67 -353 -69 -996 l-1
-460 25 -50 c34 -64 76 -90 150 -89 31 0 69 7 85 15 33 16 69 65 87 118 15 48
23 970 9 1211 -10 196 -25 255 -73 295 -38 32 -117 35 -165 5z"/>
<path d="M18410 1731 c-104 -32 -150 -103 -175 -270 -24 -158 -17 -478 20
-921 34 -395 74 -490 208 -490 60 0 102 21 124 63 16 28 18 57 16 217 -1 102
-6 257 -12 345 -14 197 -14 485 -1 519 5 14 19 30 31 36 19 11 27 6 73 -42 28
-30 136 -176 241 -324 284 -402 389 -539 489 -640 128 -128 192 -157 299 -134
79 16 129 56 166 132 62 129 66 173 66 778 0 490 -2 551 -17 601 -31 100 -115
147 -215 120 -46 -13 -65 -31 -90 -86 -16 -37 -18 -79 -18 -495 0 -479 -4
-528 -45 -550 -29 -15 -43 -12 -91 19 -76 50 -182 183 -429 536 -283 405 -392
534 -482 575 -44 20 -112 25 -158 11z"/>
</g>
</svg>
