<?xml version="1.0" standalone="no"?>
<!DOCTYPE svg PUBLIC "-//W3C//DTD SVG 20010904//EN"
 "http://www.w3.org/TR/2001/REC-SVG-20010904/DTD/svg10.dtd">
<svg version="1.0" xmlns="http://www.w3.org/2000/svg"
 width="2048.000000pt" height="2048.000000pt" viewBox="0 0 2048.000000 2048.000000"
 preserveAspectRatio="xMidYMid meet">

<g transform="translate(0.000000,2048.000000) scale(0.100000,-0.100000)"
fill="#000000" stroke="none">
<path d="M14004 19008 c246 -514 439 -1062 532 -1508 50 -243 66 -376 71 -608
17 -679 -149 -1343 -451 -1812 -211 -328 -907 -1104 -1812 -2019 l-311 -314
-98 139 c-605 856 -1155 1550 -1617 2044 -371 397 -1142 1065 -2048 1776 -314
247 -754 580 -749 568 2 -5 43 -66 90 -134 449 -647 1060 -1717 1469 -2570
944 -1968 1471 -3781 1592 -5475 16 -228 16 -957 0 -1165 -55 -707 -161 -1288
-342 -1885 -338 -1114 -951 -2183 -1673 -2922 -95 -97 -136 -146 -131 -155 10
-17 144 -200 155 -212 27 -30 952 667 1444 1089 633 542 1197 1131 1498 1565
390 562 856 1516 1271 2600 13 34 16 35 72 38 71 4 332 -13 504 -34 416 -49
633 -107 846 -225 441 -245 591 -530 571 -1088 -8 -225 -46 -399 -142 -656
-227 -603 -729 -1341 -1485 -2180 -74 -82 -266 -283 -428 -446 l-292 -296 97
-76 97 -76 81 57 c783 547 1819 1353 2450 1905 361 317 767 711 979 951 89
101 528 642 710 875 384 492 601 891 676 1250 30 140 36 338 16 486 -70 502
-202 814 -450 1061 -294 292 -672 414 -1282 415 -306 0 -446 -11 -1044 -86
-744 -93 -1000 -103 -1225 -45 -247 63 -385 220 -385 435 0 143 61 312 217
595 159 291 252 414 738 980 474 551 663 781 871 1060 378 505 639 974 767
1375 195 610 174 1367 -59 2150 -119 396 -243 652 -525 1075 -281 423 -701
951 -1172 1473 -88 97 -161 177 -163 177 -1 0 30 -69 70 -152z"/>
<path d="M5378 17820 c408 -624 701 -1335 805 -1955 42 -247 51 -358 52 -610
0 -262 -10 -370 -55 -595 -84 -420 -274 -824 -549 -1168 -43 -53 -246 -286
-452 -518 -878 -987 -1197 -1381 -1554 -1919 -578 -871 -858 -1634 -882 -2405
-12 -385 62 -728 228 -1062 198 -399 455 -625 809 -711 293 -71 455 -82 1555
-107 248 -5 500 -15 560 -20 538 -52 832 -154 1041 -365 78 -78 99 -106 137
-186 53 -110 72 -178 88 -314 26 -232 -31 -569 -136 -811 -324 -743 -1081
-1901 -1898 -2904 l-119 -145 45 -41 c25 -22 68 -59 95 -82 l50 -42 188 143
c938 710 1867 1524 2619 2297 602 618 1069 1202 1375 1716 320 538 460 951
477 1409 13 348 -53 649 -192 883 -60 100 -120 170 -223 255 -401 335 -898
464 -1548 402 -204 -20 -406 -51 -796 -125 -676 -127 -932 -151 -1203 -115
-60 8 -133 15 -161 15 -84 0 -225 29 -289 59 -129 60 -186 144 -193 287 -7
140 42 311 169 589 200 435 386 698 939 1330 448 512 664 797 855 1129 270
471 473 1053 552 1581 22 148 25 575 5 700 -69 430 -201 785 -439 1185 -285
476 -807 1085 -1742 2030 -244 246 -259 260 -213 190z"/>
<path d="M11995 16489 c-236 -34 -471 -154 -645 -328 -361 -362 -441 -911
-199 -1361 151 -279 405 -478 729 -568 88 -25 110 -27 285 -27 176 0 197 2
290 28 511 140 859 590 858 1112 0 316 -114 595 -333 815 -257 258 -625 381
-985 329z"/>
</g>
</svg>
